<?xml version="1.0" standalone="no"?>
<!DOCTYPE svg PUBLIC "-//W3C//DTD SVG 20010904//EN"
 "http://www.w3.org/TR/2001/REC-SVG-20010904/DTD/svg10.dtd">
<svg version="1.0" xmlns="http://www.w3.org/2000/svg"
 width="200.000000pt" height="200.000000pt" viewBox="0 0 200.000000 200.000000"
 preserveAspectRatio="xMidYMid meet">

<g transform="translate(0.000000,200.000000) scale(0.100000,-0.100000)"
fill="#000000" stroke="none">
<path d="M850 1985 c-95 -14 -186 -37 -228 -58 -15 -8 -45 -22 -67 -33 -236
-110 -451 -371 -519 -629 -30 -115 -40 -255 -27 -367 17 -151 33 -206 97 -343
25 -54 105 -175 115 -175 5 0 9 -5 9 -11 0 -17 134 -144 197 -187 156 -105
282 -151 470 -173 153 -18 353 9 473 63 116 53 250 132 250 149 0 5 5 9 11 9
13 0 139 126 139 139 0 6 4 11 9 11 17 0 97 136 148 250 56 124 82 320 64 473
-22 190 -67 312 -173 470 -43 63 -170 197 -187 197 -6 0 -11 4 -11 9 0 10
-103 78 -165 109 -122 61 -173 77 -315 97 -120 17 -171 17 -290 0z m-309 -676
c27 -12 49 -24 49 -28 0 -4 41 -7 90 -7 50 0 90 2 90 6 0 4 25 18 55 30 64 26
91 22 138 -19 29 -27 32 -34 32 -88 0 -36 -7 -72 -19 -96 -16 -31 -16 -42 -6
-67 7 -16 19 -35 27 -41 21 -18 43 -76 43 -114 0 -111 -85 -185 -214 -185 -44
0 -69 -6 -91 -20 -38 -25 -76 -25 -108 0 -19 15 -40 20 -87 20 -73 0 -148 29
-177 68 -31 43 -44 109 -31 162 6 25 17 49 25 53 7 4 13 15 13 22 0 8 4 15 8
15 5 0 14 11 20 25 10 22 9 30 -9 54 -25 35 -35 126 -17 161 16 29 74 70 100
70 11 0 42 -10 69 -21z m639 -2 c0 -33 10 -40 31 -21 21 19 59 10 59 -14 0
-24 18 -2 22 28 2 17 10 26 26 28 19 3 22 -1 22 -33 0 -29 -7 -43 -35 -69 -29
-28 -35 -40 -35 -75 0 -22 5 -41 10 -41 26 0 59 -46 60 -85 5 -111 2 -123 -35
-147 -31 -20 -35 -28 -35 -65 0 -24 5 -43 10 -43 22 0 59 -55 60 -87 0 -29 -3
-33 -25 -33 -20 0 -25 5 -25 24 0 29 -15 42 -24 21 -7 -19 -40 -19 -56 0 -16
19 -30 10 -30 -21 0 -20 -5 -24 -31 -24 -30 0 -31 2 -25 30 8 41 36 79 64 86
17 5 22 13 22 42 0 28 -8 42 -40 72 -39 36 -40 38 -40 105 0 66 1 69 40 106
32 31 40 45 40 74 0 28 -5 37 -24 45 -30 11 -53 45 -62 88 -6 31 -5 32 25 32
26 0 31 -4 31 -23z m410 4 c0 -11 14 -27 34 -39 29 -17 35 -27 41 -71 11 -82
-1 -128 -41 -154 -27 -18 -34 -28 -34 -56 0 -27 8 -41 36 -65 36 -31 36 -32
36 -109 0 -82 -8 -102 -49 -118 -14 -5 -23 -17 -23 -29 0 -16 -7 -20 -35 -20
-29 0 -35 4 -35 21 0 12 -8 23 -18 26 -33 8 -52 56 -52 127 0 59 3 68 30 96
16 16 34 30 40 30 5 0 10 18 10 39 0 31 -5 41 -20 46 -77 24 -79 209 -3 244
13 6 23 19 23 31 0 16 7 20 30 20 23 0 30 -5 30 -19z"/>
<path d="M1191 1037 c-6 -16 -11 -39 -11 -52 0 -13 5 -36 11 -52 11 -28 11
-28 20 -5 5 13 17 22 29 22 12 0 24 -9 29 -22 9 -23 9 -23 20 5 14 36 14 44
-1 50 -10 4 -10 6 0 6 15 1 15 12 1 48 -11 28 -11 28 -20 6 -5 -14 -17 -23
-29 -23 -12 0 -24 9 -29 23 -9 22 -9 22 -20 -6z"/>
<path d="M1518 1224 c-11 -11 -9 -116 2 -134 8 -13 10 -13 10 1 0 23 24 41 44
33 9 -3 16 -16 16 -27 0 -17 3 -18 12 -9 13 13 21 94 12 125 -6 21 -24 23 -24
2 0 -21 -57 -20 -62 1 -2 9 -6 12 -10 8z"/>
<path d="M1590 876 c0 -23 -41 -32 -56 -11 -7 9 -17 14 -23 10 -12 -7 -15 -83
-5 -110 6 -15 8 -15 25 0 21 20 56 12 61 -13 3 -12 7 -7 15 16 7 18 8 32 2 32
-5 0 -9 7 -9 15 0 8 4 15 9 15 10 0 2 48 -10 56 -5 3 -9 -2 -9 -10z"/>
</g>
</svg>
